<?xml version="1.0" encoding="utf-8"?>
<!-- Generator: Adobe Illustrator 16.0.0, SVG Export Plug-In . SVG Version: 6.00 Build 0)  -->
<!DOCTYPE svg PUBLIC "-//W3C//DTD SVG 1.1//EN" "http://www.w3.org/Graphics/SVG/1.1/DTD/svg11.dtd">
<svg version="1.1" id="Layer_1" xmlns="http://www.w3.org/2000/svg" xmlns:xlink="http://www.w3.org/1999/xlink" x="0px" y="0px"
	 width="164.704px" height="134px" viewBox="0 0 164.704 134" enable-background="new 0 0 164.704 134" xml:space="preserve">
<g>
	<defs>
		<rect id="SVGID_1_" x="5" y="4.21" width="159.704" height="129.79"/>
	</defs>
	<clipPath id="SVGID_2_">
		<use xlink:href="#SVGID_1_"  overflow="visible"/>
	</clipPath>
	<path clip-path="url(#SVGID_2_)" fill="#8CCBE0" d="M82.715,134c33.137,0,60-26.863,60-60s-26.863-60-60-60
		c-33.137,0-60,26.863-60,60S49.578,134,82.715,134"/>
	<path clip-path="url(#SVGID_2_)" fill="#FFFFFF" d="M83.132,126.051c28.752,0,52.06-23.304,52.06-52.051
		s-23.308-52.051-52.06-52.051c-28.752,0-52.06,23.304-52.06,52.051S54.379,126.051,83.132,126.051"/>
	<path clip-path="url(#SVGID_2_)" d="M77.843,21.949"/>
</g>
<rect x="11" y="6.5" fill="#FFFFFF" width="62.5" height="74.5"/>
<g>
	<text transform="matrix(1 0 0 1 63.0249 69.1055)" fill="#9D9FA2" font-family="'HelveticaNeue'" font-size="10">65% of </text>
</g>
<g>
	<text transform="matrix(1 0 0 1 69.7949 81.1055)" fill="#9D9FA2" font-family="'HelveticaNeue'" font-size="10">goal</text>
</g>
</svg>
