<?xml version="1.0" encoding="utf-8"?>
<!-- Generator: Adobe Illustrator 16.0.0, SVG Export Plug-In . SVG Version: 6.00 Build 0)  -->
<!DOCTYPE svg PUBLIC "-//W3C//DTD SVG 1.1//EN" "http://www.w3.org/Graphics/SVG/1.1/DTD/svg11.dtd">
<svg version="1.1" id="Layer_1" xmlns="http://www.w3.org/2000/svg" xmlns:xlink="http://www.w3.org/1999/xlink" x="0px" y="0px"
	 width="164.704px" height="134px" viewBox="0 0 164.704 134" enable-background="new 0 0 164.704 134" xml:space="preserve">
<g>
	<defs>
		<rect id="SVGID_1_" x="4" y="2.21" width="159.704" height="129.79"/>
	</defs>
	<clipPath id="SVGID_2_">
		<use xlink:href="#SVGID_1_"  overflow="visible"/>
	</clipPath>
	<g clip-path="url(#SVGID_2_)">
		<path fill="#8C8C8C" d="M81.715,132c33.137,0,60-26.863,60-60s-26.863-60-60-60s-60,26.863-60,60S48.578,132,81.715,132"/>
	</g>
	<g clip-path="url(#SVGID_2_)">
		<path fill="#8C8C8C" d="M141.499,43.461c11.392,0,20.625-9.233,20.625-20.625S152.89,2.21,141.499,2.21
			c-11.391,0-20.625,9.234-20.625,20.626S130.108,43.461,141.499,43.461"/>
	</g>
	<g clip-path="url(#SVGID_2_)">
		<path fill="#FFFFFF" d="M82.132,124.051c28.751,0,52.06-23.304,52.06-52.051s-23.309-52.051-52.06-52.051
			c-28.752,0-52.06,23.304-52.06,52.051S53.379,124.051,82.132,124.051"/>
	</g>
	<g clip-path="url(#SVGID_2_)">
		<path fill="#231F20" d="M76.843,19.949"/>
	</g>
	<g clip-path="url(#SVGID_2_)">
		<path fill="#008CBA" d="M81.294,72V19.949C29.243,19.949,29.068,72,29.243,72H81.294z"/>
	</g>
	<g clip-path="url(#SVGID_2_)">
		<path fill="#008CBA" d="M81.294,72v52.051c52.052,0,54.072-52.051,53.897-52.051H81.294z"/>
	</g>
	<g clip-path="url(#SVGID_2_)">
		<path fill="#008CBA" d="M81.294,72H29.243c0,52.051,52.051,52.226,52.051,52.051V72z"/>
	</g>
	<g clip-path="url(#SVGID_2_)">
		<path fill="#008CBA" d="M81.295,71.936V72h52.051c0-0.021-0.002-0.043-0.002-0.064H81.295z M131.141,54.945
			c-9.901-35.03-49.846-36.149-49.846-35.996v35.996H131.141z"/>
	</g>
</g>
<g>
	<path fill="#FFFFFF" d="M90.068,53.16c-0.279,0.11-0.562,0.166-0.845,0.166c-0.361,0-0.684-0.066-0.968-0.2
		c-0.284-0.133-0.525-0.312-0.724-0.537c-0.199-0.226-0.35-0.484-0.453-0.778c-0.104-0.293-0.156-0.597-0.156-0.913
		c0-0.352,0.049-0.687,0.146-1.004c0.096-0.318,0.24-0.597,0.432-0.836c0.192-0.238,0.432-0.43,0.717-0.571
		c0.287-0.142,0.622-0.213,1.006-0.213c0.261,0,0.508,0.03,0.74,0.091c0.232,0.062,0.439,0.157,0.622,0.288s0.336,0.296,0.46,0.497
		c0.124,0.2,0.209,0.442,0.254,0.727h-0.643c-0.031-0.185-0.09-0.344-0.176-0.477s-0.191-0.242-0.318-0.328
		c-0.126-0.086-0.27-0.149-0.43-0.192s-0.33-0.064-0.51-0.064c-0.294,0-0.545,0.059-0.755,0.176s-0.381,0.271-0.515,0.463
		c-0.133,0.192-0.23,0.411-0.293,0.656c-0.064,0.246-0.096,0.497-0.096,0.755c0,0.252,0.037,0.494,0.108,0.727
		c0.072,0.232,0.179,0.438,0.317,0.615c0.141,0.179,0.312,0.32,0.518,0.427c0.205,0.105,0.443,0.159,0.715,0.159
		c0.252,0,0.475-0.041,0.669-0.122s0.357-0.192,0.49-0.335c0.134-0.142,0.233-0.309,0.302-0.5c0.066-0.192,0.096-0.398,0.088-0.619
		h-1.543v-0.541h2.117v2.543H90.94l-0.168-0.602C90.583,52.868,90.348,53.05,90.068,53.16z"/>
	<path fill="#FFFFFF" d="M92.719,49.721v0.737h0.014c0.14-0.284,0.311-0.494,0.514-0.629c0.203-0.136,0.461-0.198,0.771-0.189v0.608
		c-0.23,0-0.426,0.032-0.588,0.095c-0.163,0.063-0.294,0.156-0.393,0.277c-0.1,0.122-0.172,0.27-0.217,0.443
		s-0.067,0.373-0.067,0.599v1.556h-0.575v-3.497H92.719z"/>
	<path fill="#FFFFFF" d="M97.549,53.204c-0.1,0.059-0.237,0.088-0.413,0.088c-0.149,0-0.267-0.042-0.354-0.125
		s-0.133-0.22-0.133-0.409c-0.158,0.189-0.342,0.326-0.551,0.409c-0.21,0.083-0.437,0.125-0.68,0.125
		c-0.158,0-0.309-0.018-0.45-0.054s-0.265-0.093-0.368-0.169c-0.104-0.077-0.187-0.178-0.247-0.302
		c-0.062-0.124-0.091-0.273-0.091-0.449c0-0.198,0.033-0.361,0.101-0.487s0.157-0.229,0.268-0.308s0.237-0.139,0.378-0.18
		c0.143-0.04,0.288-0.074,0.438-0.102c0.157-0.031,0.307-0.055,0.449-0.07s0.268-0.038,0.375-0.068
		c0.109-0.028,0.194-0.071,0.258-0.128c0.062-0.057,0.094-0.139,0.094-0.247c0-0.126-0.023-0.228-0.07-0.305
		c-0.047-0.076-0.108-0.135-0.183-0.176c-0.075-0.04-0.158-0.067-0.251-0.081c-0.092-0.014-0.184-0.021-0.273-0.021
		c-0.243,0-0.446,0.047-0.608,0.139c-0.163,0.093-0.251,0.268-0.265,0.524h-0.574c0.009-0.216,0.055-0.398,0.135-0.548
		c0.082-0.148,0.189-0.27,0.325-0.361c0.136-0.093,0.29-0.159,0.464-0.2c0.173-0.04,0.359-0.061,0.558-0.061
		c0.157,0,0.314,0.011,0.47,0.034c0.156,0.022,0.297,0.068,0.423,0.138c0.126,0.07,0.228,0.168,0.305,0.294
		c0.076,0.126,0.114,0.29,0.114,0.492v1.796c0,0.135,0.008,0.233,0.023,0.297c0.017,0.062,0.069,0.095,0.16,0.095
		c0.049,0,0.107-0.009,0.176-0.027V53.204z M96.616,51.412c-0.072,0.054-0.167,0.093-0.284,0.117
		c-0.118,0.025-0.24,0.045-0.368,0.061c-0.129,0.016-0.259,0.034-0.39,0.055c-0.131,0.02-0.248,0.053-0.352,0.097
		c-0.104,0.045-0.188,0.109-0.254,0.192s-0.099,0.196-0.099,0.34c0,0.094,0.02,0.174,0.059,0.239
		c0.038,0.064,0.088,0.117,0.148,0.158c0.061,0.04,0.132,0.069,0.213,0.087c0.082,0.019,0.167,0.027,0.258,0.027
		c0.189,0,0.352-0.026,0.486-0.078c0.135-0.051,0.246-0.116,0.332-0.194c0.085-0.079,0.148-0.164,0.189-0.256
		c0.04-0.092,0.061-0.179,0.061-0.26V51.412z"/>
	<path fill="#FFFFFF" d="M98.118,49.092v-0.703h0.574v0.703H98.118z M98.692,49.721v3.497h-0.574v-3.497H98.692z"/>
	<path fill="#FFFFFF" d="M100.125,49.721v0.555h0.014c0.239-0.424,0.618-0.636,1.137-0.636c0.23,0,0.422,0.031,0.574,0.095
		c0.154,0.063,0.277,0.151,0.373,0.264c0.094,0.112,0.16,0.247,0.199,0.402c0.038,0.155,0.058,0.328,0.058,0.518v2.3h-0.575v-2.367
		c0-0.217-0.062-0.388-0.189-0.515c-0.126-0.126-0.3-0.189-0.521-0.189c-0.177,0-0.328,0.027-0.457,0.082
		c-0.128,0.054-0.235,0.13-0.321,0.229s-0.15,0.216-0.192,0.349c-0.043,0.133-0.064,0.278-0.064,0.436v1.976h-0.575v-3.497H100.125z
		"/>
	<path fill="#FFFFFF" d="M103.786,52.437c0.054,0.088,0.125,0.158,0.213,0.21s0.188,0.089,0.297,0.111
		c0.111,0.022,0.225,0.034,0.342,0.034c0.09,0,0.186-0.007,0.284-0.021s0.19-0.038,0.274-0.074c0.083-0.036,0.152-0.089,0.206-0.159
		s0.081-0.159,0.081-0.268c0-0.148-0.057-0.261-0.169-0.338c-0.112-0.076-0.254-0.139-0.423-0.187
		c-0.169-0.047-0.354-0.09-0.551-0.128c-0.199-0.038-0.383-0.093-0.552-0.162c-0.169-0.07-0.31-0.168-0.423-0.295
		c-0.113-0.126-0.169-0.302-0.169-0.527c0-0.176,0.04-0.327,0.118-0.453c0.079-0.126,0.181-0.229,0.305-0.308
		s0.264-0.138,0.42-0.176c0.154-0.038,0.309-0.058,0.463-0.058c0.198,0,0.381,0.017,0.548,0.051
		c0.167,0.033,0.314,0.093,0.442,0.176c0.129,0.083,0.231,0.196,0.309,0.338c0.076,0.143,0.121,0.319,0.135,0.531h-0.574
		c-0.01-0.112-0.039-0.206-0.088-0.28c-0.051-0.075-0.113-0.135-0.189-0.18c-0.077-0.045-0.162-0.078-0.254-0.098
		c-0.093-0.021-0.187-0.031-0.281-0.031c-0.086,0-0.172,0.007-0.26,0.021s-0.168,0.037-0.24,0.071s-0.131,0.079-0.176,0.135
		c-0.045,0.057-0.068,0.13-0.068,0.221c0,0.099,0.035,0.181,0.105,0.246c0.069,0.065,0.158,0.12,0.267,0.163
		s0.229,0.078,0.366,0.107c0.135,0.03,0.27,0.061,0.405,0.092c0.144,0.031,0.285,0.07,0.423,0.115
		c0.137,0.045,0.259,0.104,0.365,0.179c0.105,0.074,0.191,0.168,0.257,0.281c0.065,0.112,0.099,0.252,0.099,0.419
		c0,0.212-0.045,0.388-0.133,0.527c-0.088,0.141-0.203,0.253-0.345,0.339c-0.142,0.085-0.302,0.146-0.479,0.179
		c-0.179,0.034-0.355,0.051-0.531,0.051c-0.194,0-0.379-0.021-0.555-0.061c-0.176-0.041-0.332-0.107-0.467-0.199
		c-0.136-0.093-0.244-0.215-0.325-0.366c-0.081-0.15-0.126-0.334-0.136-0.551h0.576C103.702,52.241,103.731,52.349,103.786,52.437z"
		/>
</g>
<g>
	<path fill="#FFFFFF" d="M89.276,92.085c0.488,0,0.856,0.125,1.106,0.375c0.251,0.25,0.376,0.601,0.376,1.052
		s-0.125,0.803-0.376,1.056c-0.25,0.252-0.618,0.376-1.106,0.371h-1.474v1.976H87.16v-4.829H89.276z M89.06,94.397
		c0.365,0.005,0.632-0.069,0.802-0.223c0.169-0.153,0.254-0.374,0.254-0.663c0-0.288-0.085-0.509-0.254-0.659
		c-0.17-0.151-0.437-0.227-0.802-0.227h-1.258v1.771H89.06z"/>
	<path fill="#FFFFFF" d="M91.969,93.417v0.737h0.014c0.139-0.284,0.311-0.494,0.514-0.629c0.203-0.136,0.46-0.198,0.771-0.189v0.608
		c-0.23,0-0.427,0.032-0.589,0.095c-0.163,0.063-0.294,0.156-0.393,0.277c-0.099,0.122-0.171,0.27-0.216,0.443
		s-0.068,0.373-0.068,0.599v1.556h-0.574v-3.497H91.969z"/>
	<path fill="#FFFFFF" d="M93.497,94.448c0.072-0.223,0.182-0.417,0.325-0.581c0.145-0.165,0.322-0.295,0.534-0.39
		c0.213-0.095,0.455-0.142,0.73-0.142c0.279,0,0.524,0.047,0.734,0.142c0.209,0.095,0.387,0.225,0.531,0.39
		c0.145,0.164,0.252,0.358,0.324,0.581c0.072,0.224,0.108,0.464,0.108,0.721s-0.036,0.496-0.108,0.717s-0.18,0.414-0.324,0.578
		c-0.145,0.165-0.322,0.294-0.531,0.386c-0.21,0.093-0.455,0.139-0.734,0.139c-0.275,0-0.518-0.046-0.73-0.139
		c-0.212-0.092-0.39-0.221-0.534-0.386c-0.144-0.164-0.253-0.357-0.325-0.578c-0.071-0.221-0.107-0.46-0.107-0.717
		S93.425,94.672,93.497,94.448z M94.083,95.733c0.057,0.165,0.134,0.303,0.233,0.413c0.099,0.11,0.215,0.195,0.349,0.254
		c0.133,0.059,0.273,0.088,0.422,0.088c0.149,0,0.29-0.029,0.424-0.088c0.133-0.059,0.248-0.144,0.348-0.254
		s0.177-0.248,0.233-0.413c0.056-0.164,0.085-0.353,0.085-0.564s-0.029-0.4-0.085-0.564c-0.057-0.165-0.134-0.304-0.233-0.416
		c-0.1-0.113-0.215-0.198-0.348-0.258c-0.134-0.059-0.274-0.088-0.424-0.088c-0.148,0-0.289,0.029-0.422,0.088
		c-0.134,0.06-0.25,0.145-0.349,0.258c-0.1,0.112-0.177,0.251-0.233,0.416c-0.057,0.164-0.085,0.353-0.085,0.564
		S94.026,95.569,94.083,95.733z"/>
	<path fill="#FFFFFF" d="M98.956,93.417v0.508h-0.696v2.171c0,0.067,0.006,0.122,0.017,0.162c0.012,0.041,0.033,0.072,0.064,0.095
		s0.076,0.037,0.133,0.044c0.056,0.007,0.129,0.011,0.219,0.011h0.264v0.507h-0.439c-0.148,0-0.275-0.01-0.382-0.03
		s-0.192-0.058-0.257-0.111c-0.065-0.055-0.114-0.131-0.146-0.23c-0.032-0.099-0.048-0.229-0.048-0.393v-2.225h-0.595v-0.508h0.595
		v-1.049h0.575v1.049H98.956z"/>
	<path fill="#FFFFFF" d="M102.067,96.69c-0.262,0.199-0.59,0.298-0.987,0.298c-0.28,0-0.522-0.045-0.728-0.135
		c-0.205-0.091-0.377-0.217-0.518-0.379c-0.139-0.162-0.244-0.356-0.314-0.582c-0.069-0.226-0.109-0.471-0.117-0.737
		c0-0.266,0.04-0.51,0.121-0.73s0.195-0.412,0.342-0.575c0.146-0.162,0.32-0.288,0.521-0.379c0.2-0.09,0.421-0.135,0.659-0.135
		c0.312,0,0.57,0.064,0.775,0.192c0.205,0.129,0.369,0.292,0.493,0.49c0.124,0.199,0.21,0.415,0.257,0.649
		c0.048,0.235,0.066,0.458,0.059,0.67h-2.619c-0.004,0.153,0.014,0.299,0.055,0.437s0.105,0.259,0.196,0.365
		c0.091,0.105,0.205,0.19,0.345,0.254c0.141,0.062,0.305,0.095,0.494,0.095c0.243,0,0.443-0.057,0.599-0.17
		c0.155-0.112,0.258-0.283,0.308-0.514h0.568C102.499,96.197,102.329,96.492,102.067,96.69z M101.928,94.445
		c-0.052-0.122-0.121-0.227-0.209-0.314s-0.191-0.158-0.312-0.21s-0.251-0.078-0.396-0.078c-0.148,0-0.283,0.026-0.402,0.078
		s-0.223,0.123-0.309,0.213c-0.085,0.091-0.152,0.195-0.202,0.314c-0.05,0.12-0.079,0.247-0.089,0.383h2.01
		C102.01,94.695,101.981,94.567,101.928,94.445z"/>
	<path fill="#FFFFFF" d="M103.258,92.788v-0.703h0.574v0.703H103.258z M103.833,93.417v3.497h-0.574v-3.497H103.833z"/>
	<path fill="#FFFFFF" d="M105.266,93.417v0.555h0.014c0.239-0.424,0.618-0.636,1.137-0.636c0.23,0,0.422,0.031,0.574,0.095
		c0.154,0.063,0.277,0.151,0.373,0.264c0.094,0.112,0.16,0.247,0.199,0.402c0.038,0.155,0.058,0.328,0.058,0.518v2.3h-0.575v-2.367
		c0-0.217-0.062-0.388-0.189-0.515c-0.126-0.126-0.3-0.189-0.521-0.189c-0.177,0-0.328,0.027-0.457,0.082
		c-0.128,0.054-0.235,0.13-0.321,0.229s-0.15,0.216-0.192,0.349c-0.043,0.133-0.064,0.278-0.064,0.436v1.976h-0.575v-3.497H105.266z
		"/>
</g>
<g>
	<path fill="#FFFFFF" d="M43.808,96.914l-1.698-4.829h0.69l1.38,4.187h0.014l1.393-4.187h0.67l-1.718,4.829H43.808z"/>
	<path fill="#FFFFFF" d="M48.787,96.69c-0.262,0.199-0.591,0.298-0.988,0.298c-0.28,0-0.522-0.045-0.727-0.135
		c-0.205-0.091-0.378-0.217-0.518-0.379s-0.245-0.356-0.314-0.582s-0.109-0.471-0.118-0.737c0-0.266,0.041-0.51,0.122-0.73
		s0.195-0.412,0.342-0.575c0.146-0.162,0.32-0.288,0.521-0.379c0.201-0.09,0.42-0.135,0.66-0.135c0.311,0,0.569,0.064,0.774,0.192
		c0.205,0.129,0.37,0.292,0.494,0.49c0.124,0.199,0.21,0.415,0.257,0.649c0.047,0.235,0.066,0.458,0.058,0.67H46.73
		c-0.004,0.153,0.014,0.299,0.054,0.437s0.106,0.259,0.196,0.365c0.09,0.105,0.205,0.19,0.345,0.254
		c0.14,0.062,0.304,0.095,0.494,0.095c0.243,0,0.443-0.057,0.599-0.17c0.155-0.112,0.258-0.283,0.308-0.514h0.568
		C49.217,96.197,49.048,96.492,48.787,96.69z M48.648,94.445c-0.052-0.122-0.122-0.227-0.21-0.314s-0.191-0.158-0.311-0.21
		s-0.251-0.078-0.396-0.078c-0.149,0-0.283,0.026-0.403,0.078c-0.119,0.052-0.222,0.123-0.308,0.213
		c-0.085,0.091-0.153,0.195-0.203,0.314c-0.05,0.12-0.079,0.247-0.088,0.383h2.009C48.73,94.695,48.7,94.567,48.648,94.445z"/>
	<path fill="#FFFFFF" d="M52.568,97.901c-0.262,0.284-0.672,0.427-1.231,0.427c-0.162,0-0.328-0.019-0.497-0.055
		s-0.322-0.095-0.46-0.176s-0.251-0.188-0.341-0.317c-0.09-0.131-0.14-0.291-0.149-0.48h0.575c0.004,0.104,0.037,0.191,0.098,0.264
		s0.135,0.131,0.223,0.176s0.184,0.078,0.288,0.098c0.104,0.021,0.203,0.031,0.298,0.031c0.189,0,0.349-0.033,0.48-0.099
		s0.239-0.155,0.325-0.271c0.085-0.115,0.147-0.254,0.186-0.416c0.038-0.162,0.058-0.34,0.058-0.534v-0.23h-0.014
		c-0.099,0.217-0.249,0.376-0.45,0.478s-0.414,0.152-0.639,0.152c-0.262,0-0.489-0.048-0.683-0.143
		c-0.194-0.095-0.356-0.222-0.487-0.382s-0.229-0.348-0.294-0.562c-0.065-0.214-0.098-0.44-0.098-0.68
		c0-0.208,0.027-0.421,0.081-0.64s0.144-0.417,0.271-0.595c0.126-0.179,0.293-0.325,0.5-0.439c0.208-0.115,0.462-0.173,0.765-0.173
		c0.221,0,0.424,0.049,0.608,0.146c0.185,0.097,0.329,0.242,0.433,0.437h0.007v-0.501h0.541v3.199
		C52.96,97.189,52.829,97.617,52.568,97.901z M51.833,96.329c0.133-0.079,0.24-0.183,0.321-0.312
		c0.082-0.128,0.141-0.273,0.18-0.437c0.038-0.162,0.057-0.324,0.057-0.486c0-0.153-0.018-0.305-0.054-0.453
		c-0.037-0.149-0.094-0.283-0.173-0.402c-0.079-0.12-0.182-0.216-0.308-0.288c-0.126-0.072-0.28-0.108-0.46-0.108
		c-0.185,0-0.343,0.035-0.474,0.105c-0.131,0.069-0.238,0.163-0.321,0.28s-0.144,0.253-0.183,0.406
		c-0.038,0.153-0.058,0.313-0.058,0.48c0,0.157,0.016,0.315,0.047,0.473c0.032,0.158,0.086,0.302,0.163,0.43
		c0.077,0.129,0.178,0.232,0.304,0.312c0.126,0.079,0.284,0.118,0.474,0.118S51.701,96.408,51.833,96.329z"/>
	<path fill="#FFFFFF" d="M56.301,96.69c-0.262,0.199-0.591,0.298-0.988,0.298c-0.28,0-0.522-0.045-0.727-0.135
		c-0.205-0.091-0.378-0.217-0.518-0.379s-0.245-0.356-0.314-0.582s-0.109-0.471-0.118-0.737c0-0.266,0.041-0.51,0.122-0.73
		s0.195-0.412,0.342-0.575c0.146-0.162,0.32-0.288,0.521-0.379c0.201-0.09,0.42-0.135,0.66-0.135c0.311,0,0.569,0.064,0.774,0.192
		c0.205,0.129,0.37,0.292,0.494,0.49c0.124,0.199,0.21,0.415,0.257,0.649c0.047,0.235,0.066,0.458,0.058,0.67h-2.618
		c-0.004,0.153,0.014,0.299,0.054,0.437s0.106,0.259,0.196,0.365c0.09,0.105,0.205,0.19,0.345,0.254
		c0.14,0.062,0.304,0.095,0.494,0.095c0.243,0,0.443-0.057,0.599-0.17c0.155-0.112,0.258-0.283,0.308-0.514h0.568
		C56.732,96.197,56.562,96.492,56.301,96.69z M56.163,94.445c-0.052-0.122-0.122-0.227-0.21-0.314s-0.191-0.158-0.311-0.21
		s-0.251-0.078-0.396-0.078c-0.149,0-0.283,0.026-0.403,0.078c-0.119,0.052-0.222,0.123-0.308,0.213
		c-0.085,0.091-0.153,0.195-0.203,0.314c-0.05,0.12-0.079,0.247-0.088,0.383h2.009C56.245,94.695,56.214,94.567,56.163,94.445z"/>
	<path fill="#FFFFFF" d="M58.953,93.417v0.508h-0.697v2.171c0,0.067,0.006,0.122,0.017,0.162c0.011,0.041,0.033,0.072,0.064,0.095
		c0.032,0.022,0.076,0.037,0.132,0.044c0.056,0.007,0.129,0.011,0.22,0.011h0.264v0.507h-0.439c-0.149,0-0.276-0.01-0.382-0.03
		s-0.192-0.058-0.257-0.111c-0.065-0.055-0.114-0.131-0.146-0.23c-0.032-0.099-0.047-0.229-0.047-0.393v-2.225h-0.595v-0.508h0.595
		v-1.049h0.575v1.049H58.953z"/>
	<path fill="#FFFFFF" d="M62.686,96.9c-0.099,0.059-0.237,0.088-0.413,0.088c-0.149,0-0.267-0.042-0.355-0.125
		s-0.132-0.22-0.132-0.409c-0.158,0.189-0.342,0.326-0.551,0.409c-0.21,0.083-0.437,0.125-0.68,0.125
		c-0.158,0-0.308-0.018-0.45-0.054s-0.265-0.093-0.369-0.169c-0.104-0.077-0.186-0.178-0.247-0.302
		c-0.061-0.124-0.091-0.273-0.091-0.449c0-0.198,0.034-0.361,0.101-0.487c0.068-0.126,0.157-0.229,0.268-0.308
		c0.11-0.079,0.237-0.139,0.378-0.18c0.142-0.04,0.288-0.074,0.437-0.102c0.158-0.031,0.308-0.055,0.45-0.07
		s0.267-0.038,0.375-0.068c0.108-0.028,0.194-0.071,0.257-0.128c0.063-0.057,0.095-0.139,0.095-0.247
		c0-0.126-0.023-0.228-0.071-0.305c-0.047-0.076-0.108-0.135-0.183-0.176c-0.075-0.04-0.158-0.067-0.25-0.081
		s-0.184-0.021-0.274-0.021c-0.243,0-0.446,0.047-0.608,0.139c-0.163,0.093-0.25,0.268-0.264,0.524h-0.575
		c0.009-0.216,0.054-0.398,0.135-0.548c0.081-0.148,0.189-0.27,0.325-0.361c0.135-0.093,0.29-0.159,0.463-0.2
		c0.173-0.04,0.359-0.061,0.558-0.061c0.158,0,0.314,0.011,0.47,0.034c0.156,0.022,0.296,0.068,0.423,0.138
		c0.126,0.07,0.228,0.168,0.305,0.294c0.076,0.126,0.115,0.29,0.115,0.492v1.796c0,0.135,0.008,0.233,0.023,0.297
		c0.016,0.062,0.069,0.095,0.159,0.095c0.05,0,0.108-0.009,0.176-0.027V96.9z M61.753,95.108c-0.072,0.054-0.167,0.093-0.284,0.117
		c-0.118,0.025-0.24,0.045-0.369,0.061c-0.129,0.016-0.258,0.034-0.389,0.055c-0.131,0.02-0.248,0.053-0.352,0.097
		c-0.104,0.045-0.188,0.109-0.254,0.192s-0.098,0.196-0.098,0.34c0,0.094,0.02,0.174,0.058,0.239
		c0.039,0.064,0.088,0.117,0.149,0.158c0.061,0.04,0.132,0.069,0.213,0.087c0.082,0.019,0.167,0.027,0.257,0.027
		c0.189,0,0.352-0.026,0.487-0.078c0.135-0.051,0.246-0.116,0.332-0.194c0.085-0.079,0.149-0.164,0.189-0.256
		s0.061-0.179,0.061-0.26V95.108z"/>
	<path fill="#FFFFFF" d="M63.816,92.085v1.806h0.013c0.095-0.194,0.244-0.335,0.447-0.423c0.203-0.088,0.426-0.132,0.669-0.132
		c0.271,0,0.506,0.05,0.707,0.148c0.201,0.1,0.367,0.233,0.5,0.402c0.133,0.17,0.233,0.364,0.301,0.586
		c0.068,0.221,0.102,0.455,0.102,0.703s-0.033,0.482-0.098,0.703c-0.065,0.222-0.165,0.414-0.297,0.578
		c-0.133,0.165-0.3,0.295-0.5,0.39c-0.201,0.095-0.434,0.142-0.7,0.142c-0.086,0-0.182-0.009-0.288-0.027
		c-0.106-0.018-0.211-0.047-0.314-0.088c-0.104-0.04-0.202-0.096-0.294-0.165c-0.092-0.07-0.17-0.157-0.233-0.261h-0.013v0.467
		h-0.575v-4.829H63.816z M65.882,94.658c-0.043-0.155-0.108-0.294-0.196-0.416s-0.201-0.219-0.338-0.291s-0.299-0.108-0.483-0.108
		c-0.194,0-0.358,0.039-0.494,0.115c-0.135,0.077-0.246,0.177-0.332,0.301c-0.086,0.124-0.148,0.266-0.186,0.423
		c-0.039,0.158-0.058,0.318-0.058,0.48c0,0.172,0.021,0.337,0.061,0.497s0.104,0.301,0.193,0.423
		c0.088,0.122,0.202,0.22,0.341,0.294c0.14,0.075,0.309,0.112,0.507,0.112s0.364-0.039,0.497-0.115
		c0.133-0.077,0.24-0.178,0.321-0.305c0.082-0.126,0.14-0.271,0.176-0.433s0.054-0.329,0.054-0.501
		C65.946,94.973,65.925,94.813,65.882,94.658z"/>
	<path fill="#FFFFFF" d="M67.84,92.085v4.829h-0.575v-4.829H67.84z"/>
	<path fill="#FFFFFF" d="M71.209,96.69c-0.262,0.199-0.591,0.298-0.988,0.298c-0.28,0-0.522-0.045-0.727-0.135
		c-0.205-0.091-0.378-0.217-0.518-0.379s-0.245-0.356-0.314-0.582s-0.109-0.471-0.118-0.737c0-0.266,0.041-0.51,0.122-0.73
		s0.195-0.412,0.342-0.575c0.146-0.162,0.32-0.288,0.521-0.379c0.201-0.09,0.42-0.135,0.66-0.135c0.311,0,0.569,0.064,0.774,0.192
		c0.205,0.129,0.37,0.292,0.494,0.49c0.124,0.199,0.21,0.415,0.257,0.649c0.047,0.235,0.066,0.458,0.058,0.67h-2.618
		c-0.004,0.153,0.014,0.299,0.054,0.437s0.106,0.259,0.196,0.365c0.09,0.105,0.205,0.19,0.345,0.254
		c0.14,0.062,0.304,0.095,0.494,0.095c0.243,0,0.443-0.057,0.599-0.17c0.155-0.112,0.258-0.283,0.308-0.514h0.568
		C71.64,96.197,71.47,96.492,71.209,96.69z M71.07,94.445c-0.052-0.122-0.122-0.227-0.21-0.314s-0.191-0.158-0.311-0.21
		s-0.251-0.078-0.396-0.078c-0.149,0-0.283,0.026-0.403,0.078c-0.119,0.052-0.222,0.123-0.308,0.213
		c-0.085,0.091-0.153,0.195-0.203,0.314c-0.05,0.12-0.079,0.247-0.088,0.383h2.009C71.152,94.695,71.122,94.567,71.07,94.445z"/>
	<path fill="#FFFFFF" d="M72.805,96.133c0.054,0.088,0.125,0.158,0.213,0.21s0.188,0.089,0.298,0.111s0.224,0.034,0.341,0.034
		c0.09,0,0.185-0.007,0.284-0.021s0.19-0.038,0.274-0.074s0.152-0.089,0.207-0.159s0.081-0.159,0.081-0.268
		c0-0.148-0.056-0.261-0.169-0.338c-0.113-0.076-0.254-0.139-0.423-0.187c-0.169-0.047-0.353-0.09-0.551-0.128
		c-0.199-0.038-0.382-0.093-0.551-0.162c-0.169-0.07-0.31-0.168-0.423-0.295c-0.113-0.126-0.169-0.302-0.169-0.527
		c0-0.176,0.04-0.327,0.118-0.453c0.079-0.126,0.181-0.229,0.305-0.308s0.264-0.138,0.419-0.176c0.155-0.038,0.31-0.058,0.463-0.058
		c0.199,0,0.381,0.017,0.548,0.051c0.167,0.033,0.314,0.093,0.443,0.176s0.231,0.196,0.308,0.338
		c0.077,0.143,0.122,0.319,0.135,0.531h-0.575c-0.009-0.112-0.039-0.206-0.088-0.28c-0.05-0.075-0.113-0.135-0.189-0.18
		s-0.162-0.078-0.254-0.098c-0.092-0.021-0.186-0.031-0.281-0.031c-0.085,0-0.172,0.007-0.26,0.021s-0.168,0.037-0.24,0.071
		s-0.131,0.079-0.176,0.135c-0.045,0.057-0.067,0.13-0.067,0.221c0,0.099,0.035,0.181,0.104,0.246s0.159,0.12,0.267,0.163
		c0.108,0.043,0.23,0.078,0.366,0.107c0.135,0.03,0.271,0.061,0.406,0.092c0.144,0.031,0.285,0.07,0.423,0.115
		c0.137,0.045,0.259,0.104,0.365,0.179c0.105,0.074,0.191,0.168,0.257,0.281c0.065,0.112,0.098,0.252,0.098,0.419
		c0,0.212-0.044,0.388-0.132,0.527c-0.088,0.141-0.203,0.253-0.345,0.339c-0.142,0.085-0.302,0.146-0.48,0.179
		c-0.178,0.034-0.355,0.051-0.531,0.051c-0.194,0-0.379-0.021-0.555-0.061c-0.176-0.041-0.332-0.107-0.467-0.199
		c-0.135-0.093-0.243-0.215-0.325-0.366c-0.081-0.15-0.126-0.334-0.135-0.551h0.575C72.722,95.938,72.751,96.045,72.805,96.133z"/>
</g>
<g>
	<defs>
		<rect id="SVGID_3_" x="4" y="2.21" width="159.704" height="129.79"/>
	</defs>
	<clipPath id="SVGID_4_">
		<use xlink:href="#SVGID_3_"  overflow="visible"/>
	</clipPath>
	<g clip-path="url(#SVGID_4_)">
		<path fill="#FFFFFF" d="M34.58,48.316C29.159,60.503,29.161,72,29.243,72h52.052V48.316H34.58z"/>
	</g>
</g>
<g>
	<path fill="#FFFFFF" d="M62.101,39.155v0.541h-2.53v1.535h2.218v0.541h-2.218v2.212h-0.643v-4.829H62.101z"/>
	<path fill="#FFFFFF" d="M63.236,40.487v0.737h0.014c0.14-0.284,0.311-0.494,0.514-0.629c0.203-0.136,0.46-0.198,0.771-0.189v0.608
		c-0.23,0-0.426,0.032-0.588,0.095c-0.163,0.063-0.293,0.156-0.393,0.277c-0.099,0.122-0.171,0.27-0.216,0.443
		s-0.067,0.373-0.067,0.599v1.556h-0.575v-3.497H63.236z"/>
	<path fill="#FFFFFF" d="M67.322,43.984V43.43h-0.013c-0.122,0.217-0.277,0.375-0.467,0.477s-0.413,0.152-0.67,0.152
		c-0.23,0-0.421-0.03-0.575-0.091c-0.153-0.062-0.277-0.148-0.372-0.261s-0.161-0.247-0.2-0.402
		c-0.038-0.155-0.057-0.328-0.057-0.518v-2.3h0.575v2.367c0,0.217,0.063,0.388,0.189,0.515c0.126,0.126,0.3,0.189,0.521,0.189
		c0.176,0,0.328-0.027,0.457-0.081c0.128-0.055,0.235-0.131,0.321-0.23c0.085-0.099,0.15-0.215,0.193-0.349
		c0.042-0.133,0.064-0.278,0.064-0.436v-1.976h0.575v3.497H67.322z"/>
	<path fill="#FFFFFF" d="M68.763,39.858v-0.703h0.575v0.703H68.763z M69.337,40.487v3.497h-0.575v-3.497H69.337z"/>
	<path fill="#FFFFFF" d="M71.726,40.487v0.508h-0.697v2.171c0,0.067,0.006,0.122,0.017,0.162c0.011,0.041,0.033,0.072,0.064,0.095
		c0.032,0.022,0.076,0.037,0.132,0.044c0.056,0.007,0.129,0.011,0.22,0.011h0.264v0.507h-0.439c-0.149,0-0.276-0.01-0.382-0.03
		s-0.192-0.058-0.257-0.111c-0.065-0.055-0.114-0.131-0.146-0.23c-0.032-0.099-0.047-0.229-0.047-0.393v-2.225h-0.595v-0.508h0.595
		v-1.049h0.575v1.049H71.726z"/>
	<path fill="#FFFFFF" d="M72.801,43.203c0.054,0.088,0.125,0.158,0.213,0.21s0.188,0.089,0.298,0.111s0.224,0.034,0.341,0.034
		c0.09,0,0.185-0.007,0.284-0.021s0.19-0.038,0.274-0.074s0.152-0.089,0.207-0.159s0.081-0.159,0.081-0.268
		c0-0.148-0.056-0.261-0.169-0.338c-0.113-0.076-0.254-0.139-0.423-0.187c-0.169-0.047-0.353-0.09-0.551-0.128
		c-0.199-0.038-0.382-0.093-0.551-0.162c-0.169-0.07-0.31-0.168-0.423-0.295c-0.113-0.126-0.169-0.302-0.169-0.527
		c0-0.176,0.04-0.327,0.118-0.453c0.079-0.126,0.181-0.229,0.305-0.308s0.264-0.138,0.419-0.176c0.155-0.038,0.31-0.058,0.463-0.058
		c0.199,0,0.381,0.017,0.548,0.051c0.167,0.033,0.314,0.093,0.443,0.176s0.231,0.196,0.308,0.338
		c0.077,0.143,0.122,0.319,0.135,0.531h-0.575c-0.009-0.112-0.039-0.206-0.088-0.28c-0.05-0.075-0.113-0.135-0.189-0.18
		s-0.162-0.078-0.254-0.098c-0.092-0.021-0.186-0.031-0.281-0.031c-0.085,0-0.172,0.007-0.26,0.021s-0.168,0.037-0.24,0.071
		s-0.131,0.079-0.176,0.135c-0.045,0.057-0.067,0.13-0.067,0.221c0,0.099,0.035,0.181,0.104,0.246s0.159,0.12,0.267,0.163
		c0.108,0.043,0.23,0.078,0.366,0.107c0.135,0.03,0.271,0.061,0.406,0.092c0.144,0.031,0.285,0.07,0.423,0.115
		c0.137,0.045,0.259,0.104,0.365,0.179c0.105,0.074,0.191,0.168,0.257,0.281c0.065,0.112,0.098,0.252,0.098,0.419
		c0,0.212-0.044,0.388-0.132,0.527c-0.088,0.141-0.203,0.253-0.345,0.339c-0.142,0.085-0.302,0.146-0.48,0.179
		c-0.178,0.034-0.355,0.051-0.531,0.051c-0.194,0-0.379-0.021-0.555-0.061c-0.176-0.041-0.332-0.107-0.467-0.199
		c-0.135-0.093-0.243-0.215-0.325-0.366c-0.081-0.15-0.126-0.334-0.135-0.551h0.575C72.717,43.008,72.747,43.115,72.801,43.203z"/>
</g>
<g>
	<rect x="80.051" y="19.949" fill="#8C8C8C" width="2.486" height="104.102"/>
</g>
<g>
	<rect x="29.227" y="70.691" fill="#8C8C8C" width="106.102" height="2.486"/>
</g>
<g>
	<defs>
		<rect id="SVGID_5_" x="4" y="2.21" width="159.704" height="129.79"/>
	</defs>
	<clipPath id="SVGID_6_">
		<use xlink:href="#SVGID_5_"  overflow="visible"/>
	</clipPath>
	<g clip-path="url(#SVGID_6_)">
		<path fill="#FFFFFF" d="M141.499,37.836c8.285,0,15-6.716,15-15s-6.715-15-15-15c-8.283,0-15,6.716-15,15
			S133.215,37.836,141.499,37.836"/>
	</g>
</g>
<g>
	<defs>
		<rect id="SVGID_7_" x="4" y="12" width="12.775" height="92.448"/>
	</defs>
	<clipPath id="SVGID_8_">
		<use xlink:href="#SVGID_7_"  overflow="visible"/>
	</clipPath>
	<g clip-path="url(#SVGID_8_)">
		<defs>
			<rect id="SVGID_9_" x="2.762" y="10.949" width="15.121" height="94.637"/>
		</defs>
		<clipPath id="SVGID_10_">
			<use xlink:href="#SVGID_9_"  overflow="visible"/>
		</clipPath>
		<g clip-path="url(#SVGID_10_)">
			<path fill="#FFFFFF" d="M3.023,11.21c5.041,0,10.081,0,15.121,0c0,31.545,0,63.091,0,94.637c-5.041,0-10.081,0-15.121,0
				C3.023,74.301,3.023,42.755,3.023,11.21z M9.599,12.294c-0.133,0.003-0.266,0.007-0.399,0.011
				c-0.046,0.276-0.121,0.551-0.133,0.83C8.915,16.517,8.776,19.9,8.627,23.283c-0.099,2.254-0.172,4.511-0.346,6.76
				c-0.03,0.387-0.507,0.739-0.777,1.107c-0.233-0.398-0.553-0.771-0.675-1.201c-0.114-0.401-0.026-0.862-0.015-1.296
				c0.135-5.164,0.277-10.328,0.401-15.492c0.008-0.322-0.118-0.647-0.181-0.972c-0.127,0.005-0.255,0.011-0.382,0.017
				c-0.079,0.4-0.192,0.798-0.23,1.203C5.912,18.768,5.447,24.132,4.9,29.487c-0.412,4.036-0.345,7.918,2.688,11.107
				c1.863,1.96,1.735,4.39,1.707,6.802c-1.993,0.292-2.101,0.418-2.101,2.351c0,12.643,0,25.286,0,37.93
				c0,4.866-0.002,9.732,0.001,14.599c0.001,1.597,0.277,1.862,1.91,1.874c0.913,0.007,1.825,0.003,2.737,0.001
				c1.955-0.005,2.129-0.184,2.129-2.179c0-17.336,0-34.671,0-52.007c0-2.098,0-2.098-1.989-2.669
				c-0.139-2.214-0.369-4.52,1.315-6.285c2.577-2.702,3.347-5.994,3.108-9.493c-0.422-6.189-1.094-12.362-1.681-18.54
				c-0.025-0.264-0.241-0.51-0.367-0.764c-0.287,0.337-0.343,0.583-0.337,0.829c0.102,4.687,0.215,9.373,0.316,14.06
				c0.023,1.085,0.053,2.175-0.021,3.255c-0.02,0.288-0.414,0.549-0.635,0.822c-0.231-0.274-0.517-0.52-0.676-0.831
				c-0.107-0.21-0.033-0.512-0.047-0.772c-0.279-5.375-0.558-10.749-0.844-16.124c-0.018-0.34-0.101-0.676-0.153-1.015
				c-0.309,0.269-0.37,0.512-0.374,0.756c-0.078,4.688-0.149,9.377-0.222,14.065c-0.014,0.912,0.042,1.833-0.075,2.732
				c-0.055,0.428-0.438,0.813-0.672,1.218c-0.258-0.426-0.526-0.846-0.765-1.282c-0.055-0.101-0.008-0.256-0.009-0.387
				c-0.029-4.822-0.051-9.644-0.094-14.465C9.743,14.148,9.652,13.221,9.599,12.294z"/>
			<path fill-rule="evenodd" clip-rule="evenodd" fill="#8C8C8C" d="M9.599,12.294c0.053,0.927,0.145,1.854,0.152,2.782
				c0.043,4.822,0.065,9.644,0.094,14.465c0,0.13-0.046,0.286,0.009,0.387c0.239,0.436,0.507,0.856,0.765,1.282
				c0.234-0.404,0.617-0.79,0.672-1.218c0.116-0.898,0.061-1.82,0.075-2.732c0.073-4.688,0.144-9.377,0.222-14.065
				c0.004-0.244,0.065-0.487,0.374-0.756c0.053,0.338,0.135,0.675,0.153,1.015c0.286,5.375,0.564,10.749,0.844,16.124
				c0.014,0.26-0.061,0.562,0.047,0.772c0.159,0.311,0.444,0.557,0.676,0.831c0.222-0.273,0.615-0.535,0.635-0.822
				c0.074-1.08,0.044-2.169,0.021-3.255c-0.101-4.687-0.214-9.374-0.316-14.06c-0.005-0.245,0.05-0.491,0.337-0.829
				c0.126,0.254,0.342,0.5,0.367,0.764c0.587,6.178,1.259,12.351,1.681,18.54c0.239,3.5-0.532,6.792-3.108,9.493
				c-1.684,1.765-1.455,4.071-1.315,6.285c1.989,0.571,1.989,0.571,1.989,2.669c0,17.336,0,34.671,0,52.007
				c0,1.995-0.174,2.174-2.129,2.179c-0.912,0.002-1.825,0.006-2.737-0.001c-1.633-0.012-1.909-0.277-1.91-1.874
				c-0.004-4.866-0.001-9.732-0.001-14.599c0-12.644,0-25.287,0-37.93c0-1.933,0.108-2.059,2.101-2.351
				c0.028-2.413,0.156-4.842-1.707-6.802C4.555,37.405,4.488,33.523,4.9,29.487c0.547-5.355,1.012-10.719,1.521-16.078
				c0.039-0.405,0.152-0.802,0.23-1.203c0.127-0.006,0.255-0.011,0.382-0.017c0.063,0.324,0.189,0.649,0.181,0.972
				c-0.124,5.164-0.266,10.328-0.401,15.492c-0.011,0.435-0.099,0.895,0.015,1.296c0.123,0.429,0.442,0.803,0.675,1.201
				c0.271-0.368,0.747-0.721,0.777-1.107c0.174-2.249,0.247-4.506,0.346-6.76c0.148-3.383,0.288-6.766,0.439-10.148
				c0.013-0.278,0.087-0.553,0.133-0.83C9.333,12.301,9.466,12.297,9.599,12.294z"/>
		</g>
	</g>
</g>
<g>
	<defs>
		<rect id="SVGID_11_" x="4" y="2.21" width="159.704" height="129.79"/>
	</defs>
	<clipPath id="SVGID_12_">
		<use xlink:href="#SVGID_11_"  overflow="visible"/>
	</clipPath>
	<g clip-path="url(#SVGID_12_)">
		<path fill="#008CBA" d="M126.499,22.836h30c0-8.284-6.715-15-15-15C133.215,7.836,126.499,14.552,126.499,22.836"/>
	</g>
</g>
<g>
	<path fill="#FFFFFF" d="M135.918,15.909c0.744,0,1.316,0.188,1.719,0.567c0.4,0.379,0.602,0.956,0.602,1.732
		c0,0.405-0.045,0.765-0.135,1.078c-0.091,0.313-0.23,0.577-0.42,0.792c-0.189,0.214-0.431,0.377-0.724,0.49
		c-0.294,0.112-0.641,0.169-1.042,0.169h-1.656v-4.829H135.918z M135.973,20.197c0.072,0,0.162-0.006,0.27-0.017
		c0.109-0.012,0.225-0.039,0.346-0.082c0.121-0.042,0.242-0.104,0.361-0.186c0.12-0.081,0.227-0.191,0.322-0.331
		c0.094-0.14,0.172-0.315,0.232-0.524c0.062-0.21,0.092-0.464,0.092-0.761c0-0.289-0.028-0.547-0.084-0.775
		c-0.057-0.228-0.149-0.421-0.277-0.581c-0.129-0.16-0.295-0.282-0.498-0.365c-0.203-0.084-0.453-0.125-0.75-0.125h-1.082v3.747
		H135.973z"/>
	<path fill="#FFFFFF" d="M142.026,20.725c-0.099,0.059-0.236,0.088-0.412,0.088c-0.148,0-0.268-0.042-0.355-0.125
		s-0.131-0.22-0.131-0.409c-0.158,0.189-0.342,0.326-0.552,0.409s-0.437,0.125-0.68,0.125c-0.158,0-0.308-0.018-0.45-0.054
		s-0.265-0.093-0.369-0.169c-0.104-0.077-0.186-0.178-0.246-0.302s-0.092-0.273-0.092-0.449c0-0.198,0.034-0.361,0.102-0.487
		c0.068-0.126,0.156-0.229,0.268-0.308c0.11-0.079,0.236-0.139,0.379-0.18c0.142-0.04,0.287-0.074,0.436-0.102
		c0.158-0.031,0.309-0.055,0.45-0.07s0.267-0.038,0.376-0.068c0.107-0.028,0.193-0.071,0.256-0.128
		c0.064-0.057,0.096-0.139,0.096-0.247c0-0.126-0.023-0.228-0.071-0.305c-0.048-0.076-0.108-0.135-0.183-0.176
		c-0.074-0.04-0.158-0.067-0.25-0.081c-0.093-0.014-0.184-0.021-0.274-0.021c-0.243,0-0.446,0.047-0.608,0.139
		c-0.162,0.093-0.25,0.268-0.264,0.524h-0.575c0.009-0.216,0.054-0.398,0.136-0.548c0.08-0.148,0.189-0.27,0.324-0.361
		c0.135-0.093,0.289-0.159,0.463-0.2c0.174-0.04,0.359-0.061,0.559-0.061c0.158,0,0.314,0.011,0.47,0.034
		c0.155,0.022,0.296,0.068,0.423,0.138c0.127,0.07,0.228,0.168,0.305,0.294c0.076,0.126,0.115,0.29,0.115,0.492v1.796
		c0,0.135,0.008,0.233,0.023,0.297c0.016,0.062,0.068,0.095,0.158,0.095c0.051,0,0.109-0.009,0.176-0.027V20.725z M141.093,18.933
		c-0.072,0.054-0.167,0.093-0.284,0.117c-0.117,0.025-0.24,0.045-0.369,0.061s-0.258,0.034-0.389,0.055
		c-0.131,0.02-0.248,0.053-0.352,0.097c-0.104,0.045-0.188,0.109-0.254,0.192s-0.098,0.196-0.098,0.34
		c0,0.094,0.02,0.174,0.057,0.239c0.039,0.064,0.088,0.117,0.149,0.158c0.062,0.04,0.132,0.069,0.213,0.087
		c0.081,0.019,0.167,0.027,0.257,0.027c0.189,0,0.352-0.026,0.487-0.078c0.136-0.051,0.245-0.116,0.331-0.194
		c0.086-0.079,0.149-0.164,0.189-0.256c0.041-0.092,0.062-0.179,0.062-0.26V18.933z"/>
	<path fill="#FFFFFF" d="M142.594,16.612v-0.703h0.575v0.703H142.594z M143.169,17.241v3.497h-0.575v-3.497H143.169z"/>
	<path fill="#FFFFFF" d="M144.583,17.241v0.737h0.014c0.141-0.284,0.312-0.494,0.515-0.629c0.202-0.136,0.46-0.198,0.771-0.189
		v0.608c-0.229,0-0.426,0.032-0.588,0.095c-0.162,0.063-0.293,0.156-0.393,0.277c-0.1,0.122-0.172,0.27-0.217,0.443
		s-0.066,0.373-0.066,0.599v1.556h-0.576v-3.497H144.583z"/>
	<path fill="#FFFFFF" d="M147.688,21.205c-0.068,0.171-0.135,0.315-0.199,0.433c-0.066,0.117-0.139,0.213-0.217,0.288
		c-0.079,0.074-0.167,0.128-0.264,0.162c-0.098,0.033-0.209,0.051-0.335,0.051c-0.067,0-0.136-0.005-0.203-0.014
		s-0.133-0.025-0.196-0.048V21.55c0.05,0.022,0.107,0.042,0.173,0.058s0.12,0.023,0.165,0.023c0.117,0,0.216-0.028,0.295-0.084
		c0.078-0.057,0.139-0.137,0.18-0.24l0.236-0.589l-1.387-3.477h0.649l1.021,2.861h0.014l0.981-2.861h0.608L147.688,21.205z"/>
</g>
</svg>
